<?xml version="1.0" encoding="UTF-8" standalone="no"?>
<!-- Created with Inkscape (http://www.inkscape.org/) -->

<svg
   xmlns:dc="http://purl.org/dc/elements/1.1/"
   xmlns:cc="http://creativecommons.org/ns#"
   xmlns:rdf="http://www.w3.org/1999/02/22-rdf-syntax-ns#"
   xmlns:svg="http://www.w3.org/2000/svg"
   xmlns="http://www.w3.org/2000/svg"
   xmlns:sodipodi="http://sodipodi.sourceforge.net/DTD/sodipodi-0.dtd"
   xmlns:inkscape="http://www.inkscape.org/namespaces/inkscape"
   width="8655.8486mm"
   height="1474.3489mm"
   viewBox="0 0 8655.8483 1474.3488"
   version="1.1"
   id="svg4737"
   sodipodi:docname="LLW logo vector.svg"
   inkscape:version="0.92.3 (2405546, 2018-03-11)">
  <defs
     id="defs4731" />
  <sodipodi:namedview
     id="base"
     pagecolor="#ffffff"
     bordercolor="#666666"
     borderopacity="1.0"
     inkscape:pageopacity="0.0"
     inkscape:pageshadow="2"
     inkscape:zoom="0.035155425"
     inkscape:cx="18202.113"
     inkscape:cy="1970.2493"
     inkscape:document-units="mm"
     inkscape:current-layer="layer1"
     showgrid="false"
     inkscape:window-width="1920"
     inkscape:window-height="1017"
     inkscape:window-x="-8"
     inkscape:window-y="-8"
     inkscape:window-maximized="1"
     fit-margin-top="0"
     fit-margin-left="0"
     fit-margin-right="0"
     fit-margin-bottom="0" />
  <metadata
     id="metadata4734">
    <rdf:RDF>
      <cc:Work
         rdf:about="">
        <dc:format>image/svg+xml</dc:format>
        <dc:type
           rdf:resource="http://purl.org/dc/dcmitype/StillImage" />
        <dc:title></dc:title>
      </cc:Work>
    </rdf:RDF>
  </metadata>
  <g
     inkscape:label="Layer 1"
     inkscape:groupmode="layer"
     id="layer1"
     transform="translate(43.954497,1316.3923)">
    <rect
       id="rect3747"
       width="327.69635"
       height="327.69635"
       x="-43.954498"
       y="-1075.2968"
       style="fill:#ff5e3a;fill-opacity:1;stroke-width:7.50995159" />
    <rect
       id="rect3747-7"
       width="327.69635"
       height="327.69635"
       x="-43.954498"
       y="-619.00671"
       style="fill:#ff5e3a;fill-opacity:1;stroke-width:7.50995159" />
    <rect
       id="rect3747-72"
       width="327.69635"
       height="327.69635"
       x="-43.954498"
       y="-169.73976"
       style="fill:#ff5e3a;fill-opacity:1;stroke-width:7.50995159" />
    <rect
       id="rect3747-1"
       width="327.69635"
       height="327.69635"
       x="405.7309"
       y="-619.00671"
       style="fill:#ff5e3a;fill-opacity:1;stroke-width:7.50995159" />
    <rect
       id="rect3747-9"
       width="327.69635"
       height="327.69635"
       x="761.90991"
       y="-1068.9752"
       style="fill:#ff5e3a;fill-opacity:1;stroke-width:7.50995159"
       transform="rotate(19.651148)" />
    <rect
       id="rect3747-0"
       width="327.69632"
       height="327.69632"
       x="-832.01343"
       y="-1197.1754"
       style="fill:#ff5e3a;fill-opacity:1;stroke-width:7.50995111"
       transform="rotate(67.266062)" />
    <rect
       id="rect3747-11"
       width="327.69635"
       height="327.69635"
       x="1197.0223"
       y="-1138.3177"
       style="fill:#ff5e3a;fill-opacity:1;stroke-width:7.50995159"
       transform="rotate(-7.0309736)" />
    <rect
       id="rect3747-1-7"
       width="327.69635"
       height="327.69635"
       x="405.7309"
       y="-169.73976"
       style="fill:#ff5e3a;fill-opacity:1;stroke-width:7.50995159" />
    <rect
       id="rect3747-1-76"
       width="327.69635"
       height="327.69635"
       x="855.73846"
       y="-169.73976"
       style="fill:#ff5e3a;fill-opacity:1;stroke-width:7.50995159" />
    <g
       aria-label="Lancaster Laundry Works LLC"
       transform="scale(0.92096873,1.0858132)"
       style="font-style:normal;font-weight:normal;font-size:287.42672729px;line-height:1.25;font-family:sans-serif;letter-spacing:-5.31739473px;word-spacing:-8.47908974px;fill:#194056;fill-opacity:1;stroke:none;stroke-width:7.18566847"
       id="text3869">
      <path
         d="m 1897.9018,-808.63583 h 101.0484 v 373.54251 h 148.2045 v 86.22802 h -249.2529 z"
         style="font-style:normal;font-variant:normal;font-weight:normal;font-stretch:normal;font-size:689.82421875px;font-family:'Franklin Gothic Demi Cond';-inkscape-font-specification:'Franklin Gothic Demi Cond';letter-spacing:-5.31739473px;word-spacing:-8.47908974px;fill:#194056;fill-opacity:1;stroke-width:7.18566847"
         id="path5381"
         inkscape:connector-curvature="0" />
      <path
         d="m 2268.8215,-580.93995 -89.9331,-8.75753 q 6.3997,-51.19789 43.4508,-78.81781 37.388,-27.61991 93.9751,-27.61991 47.8296,0 76.7969,18.52555 28.9672,18.18872 36.3774,42.44036 7.7471,24.25163 7.7471,75.11269 v 135.74178 q 0,63.32371 5.726,75.44952 h -87.9121 q -4.7156,-13.80995 -4.7156,-52.20837 -31.3251,59.28177 -93.3015,59.28177 -39.7457,0 -64.671,-23.57798 -24.9253,-23.9148 -24.9253,-69.38661 0,-56.92398 37.7248,-87.91217 37.7248,-31.32503 137.4259,-37.38794 v -12.79947 q 0,-34.01965 -7.0734,-47.15595 -6.7365,-13.1363 -26.6094,-13.1363 -36.3775,0 -40.0826,52.20837 z m 73.7654,69.38662 q -41.4299,4.71559 -59.2817,18.52555 -17.5151,13.47313 -17.5151,45.80864 0,43.11401 31.6618,43.11401 17.1783,0 30.9882,-19.1992 14.1468,-19.53604 14.1468,-71.40759 z"
         style="font-style:normal;font-variant:normal;font-weight:normal;font-stretch:normal;font-size:689.82421875px;font-family:'Franklin Gothic Demi Cond';-inkscape-font-specification:'Franklin Gothic Demi Cond';letter-spacing:-5.31739473px;word-spacing:-8.47908974px;fill:#194056;fill-opacity:1;stroke-width:7.18566847"
         id="path5383"
         inkscape:connector-curvature="0" />
      <path
         d="m 2501.3049,-689.06181 h 89.9331 v 46.4823 q 23.578,-53.21886 85.2175,-53.21886 33.346,0 54.903,15.15727 21.8939,14.82044 27.9568,38.06159 6.0629,23.24114 6.0629,70.73393 v 222.98028 h -94.9856 v -222.98028 q 0,-34.35648 -8.7575,-42.44036 -8.7575,-8.08388 -23.578,-8.08388 -25.5989,0 -33.6828,15.83093 -8.0839,15.4941 -8.0839,58.27128 v 199.40231 h -94.9855 z"
         style="font-style:normal;font-variant:normal;font-weight:normal;font-stretch:normal;font-size:689.82421875px;font-family:'Franklin Gothic Demi Cond';-inkscape-font-specification:'Franklin Gothic Demi Cond';letter-spacing:-5.31739473px;word-spacing:-8.47908974px;fill:#194056;fill-opacity:1;stroke-width:7.18566847"
         id="path5385"
         inkscape:connector-curvature="0" />
      <path
         d="m 3078.7003,-563.76171 -88.249,3.36829 q -2.021,-31.32503 -10.1049,-47.15596 -8.0838,-16.16775 -27.283,-16.16775 -47.8297,0 -47.8297,100.37481 0,58.27128 11.4522,81.51243 11.789,23.24115 34.6933,23.24115 35.7038,0 39.0721,-62.98688 l 88.249,5.72608 q -11.789,134.05764 -133.384,134.05764 -65.6815,0 -100.7116,-44.1245 -34.6933,-44.46133 -34.6933,-132.03667 0,-86.90168 36.3774,-132.37349 36.7143,-45.47181 102.7326,-45.47181 119.2372,0 129.6789,132.03666 z"
         style="font-style:normal;font-variant:normal;font-weight:normal;font-stretch:normal;font-size:689.82421875px;font-family:'Franklin Gothic Demi Cond';-inkscape-font-specification:'Franklin Gothic Demi Cond';letter-spacing:-5.31739473px;word-spacing:-8.47908974px;fill:#194056;fill-opacity:1;stroke-width:7.18566847"
         id="path5387"
         inkscape:connector-curvature="0" />
      <path
         d="m 3216.1981,-580.93995 -89.9331,-8.75753 q 6.3997,-51.19789 43.4508,-78.81781 37.388,-27.61991 93.9751,-27.61991 47.8296,0 76.7968,18.52555 28.9673,18.18872 36.3775,42.44036 7.747,24.25163 7.747,75.11269 v 135.74178 q 0,63.32371 5.7261,75.44952 h -87.9121 q -4.7156,-13.80995 -4.7156,-52.20837 -31.3251,59.28177 -93.3015,59.28177 -39.7457,0 -64.671,-23.57798 -24.9253,-23.9148 -24.9253,-69.38661 0,-56.92398 37.7248,-87.91217 37.7248,-31.32503 137.4259,-37.38794 v -12.79947 q 0,-34.01965 -7.0734,-47.15595 -6.7366,-13.1363 -26.6094,-13.1363 -36.3775,0 -40.0826,52.20837 z m 73.7654,69.38662 q -41.4299,4.71559 -59.2818,18.52555 -17.515,13.47313 -17.515,45.80864 0,43.11401 31.6618,43.11401 17.1783,0 30.9882,-19.1992 14.1468,-19.53604 14.1468,-71.40759 z"
         style="font-style:normal;font-variant:normal;font-weight:normal;font-stretch:normal;font-size:689.82421875px;font-family:'Franklin Gothic Demi Cond';-inkscape-font-specification:'Franklin Gothic Demi Cond';letter-spacing:-5.31739473px;word-spacing:-8.47908974px;fill:#194056;fill-opacity:1;stroke-width:7.18566847"
         id="path5389"
         inkscape:connector-curvature="0" />
      <path
         d="m 3673.009,-607.21255 -67.7025,20.20969 q -13.4731,-46.14546 -49.8506,-46.14546 -29.6409,0 -29.6409,29.64088 0,16.84141 11.1154,25.59895 11.1153,8.75753 45.8086,20.88335 39.0721,13.80995 57.2608,24.25163 18.1887,10.44168 30.6514,31.66185 12.4626,20.88335 12.4626,48.16644 0,47.15595 -34.0196,79.15464 -34.0197,31.99868 -94.9856,31.99868 -114.8584,0 -127.3211,-101.3853 l 75.4496,-12.12582 q 9.4312,50.86107 53.5557,50.86107 37.7247,0 37.7247,-31.66186 0,-16.84141 -11.1153,-25.59894 -11.1153,-8.75754 -43.114,-18.86238 -58.6081,-18.86239 -80.502,-45.47182 -21.8938,-26.60943 -21.8938,-61.63956 0,-49.17692 34.3565,-78.81781 34.6933,-29.64088 86.5648,-29.64088 90.6068,0 115.1953,88.92265 z"
         style="font-style:normal;font-variant:normal;font-weight:normal;font-stretch:normal;font-size:689.82421875px;font-family:'Franklin Gothic Demi Cond';-inkscape-font-specification:'Franklin Gothic Demi Cond';letter-spacing:-5.31739473px;word-spacing:-8.47908974px;fill:#194056;fill-opacity:1;stroke-width:7.18566847"
         id="path5391"
         inkscape:connector-curvature="0" />
      <path
         d="m 3741.7939,-793.47856 92.2909,-3.03146 v 107.44821 h 62.6501 v 74.77587 h -62.6501 v 124.96327 q 0,34.69331 1.3473,45.13498 1.6842,10.10485 10.1049,17.17824 8.7575,6.73657 28.9672,6.73657 10.7785,0 26.9462,-0.67366 v 72.08124 q -31.6618,7.0734 -57.9344,7.0734 -43.114,0 -66.0183,-16.50459 -22.9044,-16.50458 -29.3041,-41.42987 -6.3997,-24.92529 -6.3997,-79.15463 v -135.40495 h -37.7248 v -74.77587 h 37.7248 z"
         style="font-style:normal;font-variant:normal;font-weight:normal;font-stretch:normal;font-size:689.82421875px;font-family:'Franklin Gothic Demi Cond';-inkscape-font-specification:'Franklin Gothic Demi Cond';letter-spacing:-5.31739473px;word-spacing:-8.47908974px;fill:#194056;fill-opacity:1;stroke-width:7.18566847"
         id="path5393"
         inkscape:connector-curvature="0" />
      <path
         d="m 4195.5733,-503.13263 h -178.519 v 18.86239 q 0,45.80863 12.4627,61.30273 12.4626,15.4941 32.6723,15.4941 43.4509,0 48.8401,-58.27128 l 84.5439,5.38925 q -22.5675,118.56354 -135.0681,118.56354 -69.3866,0 -105.4272,-46.81913 -36.0407,-46.81912 -36.0407,-125.3001 0,-88.58582 38.0616,-135.06812 38.3984,-46.81912 102.7326,-46.81912 57.9345,0 96.6697,41.42987 39.0721,41.09304 39.0721,151.23587 z m -89.5963,-54.903 q 0.3368,-6.06291 0.3368,-9.43119 0,-65.6815 -44.4613,-65.6815 -43.7877,0 -44.1245,75.11269 z"
         style="font-style:normal;font-variant:normal;font-weight:normal;font-stretch:normal;font-size:689.82421875px;font-family:'Franklin Gothic Demi Cond';-inkscape-font-specification:'Franklin Gothic Demi Cond';letter-spacing:-5.31739473px;word-spacing:-8.47908974px;fill:#194056;fill-opacity:1;stroke-width:7.18566847"
         id="path5395"
         inkscape:connector-curvature="0" />
      <path
         d="m 4246.5062,-689.06181 h 83.5334 v 82.18609 q 22.5675,-86.56486 80.502,-86.56486 7.0734,0 16.1677,1.68414 v 92.62777 q -10.4417,-1.34731 -15.8309,-1.34731 -69.3866,0 -69.3866,105.0904 v 146.52028 h -94.9856 z"
         style="font-style:normal;font-variant:normal;font-weight:normal;font-stretch:normal;font-size:689.82421875px;font-family:'Franklin Gothic Demi Cond';-inkscape-font-specification:'Franklin Gothic Demi Cond';letter-spacing:-5.31739473px;word-spacing:-8.47908974px;fill:#194056;fill-opacity:1;stroke-width:7.18566847"
         id="path5397"
         inkscape:connector-curvature="0" />
      <path
         d="m 4576.6833,-808.63583 h 101.0484 v 373.54251 h 148.2045 v 86.22802 h -249.2529 z"
         style="font-style:normal;font-variant:normal;font-weight:normal;font-stretch:normal;font-size:689.82421875px;font-family:'Franklin Gothic Demi Cond';-inkscape-font-specification:'Franklin Gothic Demi Cond';letter-spacing:-5.31739473px;word-spacing:-8.47908974px;fill:#194056;fill-opacity:1;stroke-width:7.18566847"
         id="path5399"
         inkscape:connector-curvature="0" />
      <path
         d="m 4947.6029,-580.93995 -89.9331,-8.75753 q 6.3997,-51.19789 43.4508,-78.81781 37.3879,-27.61991 93.9751,-27.61991 47.8296,0 76.7968,18.52555 28.9673,18.18872 36.3775,42.44036 7.747,24.25163 7.747,75.11269 v 135.74178 q 0,63.32371 5.7261,75.44952 h -87.9122 q -4.7156,-13.80995 -4.7156,-52.20837 -31.325,59.28177 -93.3014,59.28177 -39.7457,0 -64.671,-23.57798 -24.9253,-23.9148 -24.9253,-69.38661 0,-56.92398 37.7248,-87.91217 37.7247,-31.32503 137.4259,-37.38794 v -12.79947 q 0,-34.01965 -7.0734,-47.15595 -6.7366,-13.1363 -26.6094,-13.1363 -36.3775,0 -40.0826,52.20837 z m 73.7654,69.38662 q -41.4299,4.71559 -59.2818,18.52555 -17.515,13.47313 -17.515,45.80864 0,43.11401 31.6618,43.11401 17.1782,0 30.9882,-19.1992 14.1468,-19.53604 14.1468,-71.40759 z"
         style="font-style:normal;font-variant:normal;font-weight:normal;font-stretch:normal;font-size:689.82421875px;font-family:'Franklin Gothic Demi Cond';-inkscape-font-specification:'Franklin Gothic Demi Cond';letter-spacing:-5.31739473px;word-spacing:-8.47908974px;fill:#194056;fill-opacity:1;stroke-width:7.18566847"
         id="path5401"
         inkscape:connector-curvature="0" />
      <path
         d="m 5175.3707,-689.06181 h 94.9856 v 218.26469 q 0,33.00917 6.0629,44.1245 6.0629,11.11533 26.2726,11.11533 18.5255,0 27.9567,-9.09436 9.768,-9.09436 11.789,-24.92529 2.021,-16.16775 2.021,-66.01833 v -173.46654 h 94.9855 v 340.19651 h -89.2595 v -46.48229 q -20.2096,34.69331 -40.4193,44.1245 -19.8729,9.43119 -47.156,9.43119 -36.7143,0 -56.2503,-15.15727 -19.536,-15.15727 -25.2621,-38.39842 -5.7261,-23.24115 -5.7261,-72.41807 z"
         style="font-style:normal;font-variant:normal;font-weight:normal;font-stretch:normal;font-size:689.82421875px;font-family:'Franklin Gothic Demi Cond';-inkscape-font-specification:'Franklin Gothic Demi Cond';letter-spacing:-5.31739473px;word-spacing:-8.47908974px;fill:#194056;fill-opacity:1;stroke-width:7.18566847"
         id="path5403"
         inkscape:connector-curvature="0" />
      <path
         d="m 5503.5133,-689.06181 h 89.9331 v 46.4823 q 23.578,-53.21886 85.2176,-53.21886 33.346,0 54.903,15.15727 21.8938,14.82044 27.9567,38.06159 6.0629,23.24114 6.0629,70.73393 v 222.98028 h -94.9855 v -222.98028 q 0,-34.35648 -8.7576,-42.44036 -8.7575,-8.08388 -23.5779,-8.08388 -25.599,0 -33.6829,15.83093 -8.0838,15.4941 -8.0838,58.27128 v 199.40231 h -94.9856 z"
         style="font-style:normal;font-variant:normal;font-weight:normal;font-stretch:normal;font-size:689.82421875px;font-family:'Franklin Gothic Demi Cond';-inkscape-font-specification:'Franklin Gothic Demi Cond';letter-spacing:-5.31739473px;word-spacing:-8.47908974px;fill:#194056;fill-opacity:1;stroke-width:7.18566847"
         id="path5405"
         inkscape:connector-curvature="0" />
      <path
         d="m 5993.3334,-808.63583 h 93.3015 v 459.77053 h -87.9122 v -56.25031 q -21.557,60.96591 -77.4705,60.96591 -54.903,0 -81.8493,-47.82961 -26.9462,-47.82961 -26.9462,-125.63693 0,-88.58582 30.6513,-132.37349 30.9882,-43.78767 82.523,-43.78767 47.4927,0 67.7024,36.37744 z m 0,262.05236 q 0,-50.1874 -10.7785,-67.02882 -10.4416,-17.17824 -30.6513,-17.17824 -23.9148,0 -32.6724,23.57798 -8.4207,23.57798 -8.4207,97.68019 0,55.23983 9.4312,77.47049 9.4312,22.23066 30.9882,22.23066 18.1887,0 29.9777,-14.82044 12.1258,-15.15727 12.1258,-61.63956 z"
         style="font-style:normal;font-variant:normal;font-weight:normal;font-stretch:normal;font-size:689.82421875px;font-family:'Franklin Gothic Demi Cond';-inkscape-font-specification:'Franklin Gothic Demi Cond';letter-spacing:-5.31739473px;word-spacing:-8.47908974px;fill:#194056;fill-opacity:1;stroke-width:7.18566847"
         id="path5407"
         inkscape:connector-curvature="0" />
      <path
         d="m 6150.3673,-689.06181 h 83.5334 v 82.18609 q 22.5675,-86.56486 80.5019,-86.56486 7.0734,0 16.1678,1.68414 v 92.62777 q -10.4417,-1.34731 -15.8309,-1.34731 -69.3866,0 -69.3866,105.0904 v 146.52028 h -94.9856 z"
         style="font-style:normal;font-variant:normal;font-weight:normal;font-stretch:normal;font-size:689.82421875px;font-family:'Franklin Gothic Demi Cond';-inkscape-font-specification:'Franklin Gothic Demi Cond';letter-spacing:-5.31739473px;word-spacing:-8.47908974px;fill:#194056;fill-opacity:1;stroke-width:7.18566847"
         id="path5409"
         inkscape:connector-curvature="0" />
      <path
         d="m 6338.3894,-689.06181 h 94.9855 l 45.8087,207.82302 44.1245,-207.82302 h 81.8492 l -102.3958,345.58577 q -14.8204,49.51375 -25.2621,69.38661 -10.4416,19.87287 -31.325,32.67234 -20.8834,13.1363 -53.2189,13.1363 -19.8728,0 -40.4193,-5.38925 v -74.77587 q 14.1467,2.02097 26.6094,2.02097 27.6199,0 37.7247,-9.09436 10.4417,-9.09436 19.5361,-39.74573 z"
         style="font-style:normal;font-variant:normal;font-weight:normal;font-stretch:normal;font-size:689.82421875px;font-family:'Franklin Gothic Demi Cond';-inkscape-font-specification:'Franklin Gothic Demi Cond';letter-spacing:-5.31739473px;word-spacing:-8.47908974px;fill:#194056;fill-opacity:1;stroke-width:7.18566847"
         id="path5411"
         inkscape:connector-curvature="0" />
      <path
         d="m 6701.5754,-808.63583 h 103.4063 l 48.1664,318.30268 60.2923,-318.30268 h 92.6277 l 56.5872,318.97633 56.2503,-318.97633 h 85.2175 l -98.6906,462.12833 h -90.6068 l -61.3028,-319.64999 -62.65,319.64999 h -89.5963 z"
         style="font-style:normal;font-variant:normal;font-weight:normal;font-stretch:normal;font-size:689.82421875px;font-family:'Franklin Gothic Demi Cond';-inkscape-font-specification:'Franklin Gothic Demi Cond';letter-spacing:-5.31739473px;word-spacing:-8.47908974px;fill:#194056;fill-opacity:1;stroke-width:7.18566847"
         id="path5413"
         inkscape:connector-curvature="0" />
      <path
         d="m 7482.0784,-518.96355 q 0,177.17165 -138.0996,177.17165 -138.4364,0 -138.4364,-177.17165 0,-176.83482 138.4364,-176.83482 138.0996,0 138.0996,176.83482 z m -98.0171,0 q 0,-65.00785 -9.0943,-87.91217 -8.7576,-22.90432 -30.9882,-22.90432 -21.557,0 -30.9882,21.89383 -9.4312,21.55701 -9.4312,88.92266 0,62.31322 8.0839,86.56485 8.0838,24.25164 32.3355,24.25164 23.2411,0 31.6618,-23.91481 8.4207,-24.25163 8.4207,-86.90168 z"
         style="font-style:normal;font-variant:normal;font-weight:normal;font-stretch:normal;font-size:689.82421875px;font-family:'Franklin Gothic Demi Cond';-inkscape-font-specification:'Franklin Gothic Demi Cond';letter-spacing:-5.31739473px;word-spacing:-8.47908974px;fill:#194056;fill-opacity:1;stroke-width:7.18566847"
         id="path5415"
         inkscape:connector-curvature="0" />
      <path
         d="m 7532.6744,-689.06181 h 83.5334 v 82.18609 q 22.5675,-86.56486 80.502,-86.56486 7.0734,0 16.1677,1.68414 v 92.62777 q -10.4416,-1.34731 -15.8309,-1.34731 -69.3866,0 -69.3866,105.0904 v 146.52028 h -94.9856 z"
         style="font-style:normal;font-variant:normal;font-weight:normal;font-stretch:normal;font-size:689.82421875px;font-family:'Franklin Gothic Demi Cond';-inkscape-font-specification:'Franklin Gothic Demi Cond';letter-spacing:-5.31739473px;word-spacing:-8.47908974px;fill:#194056;fill-opacity:1;stroke-width:7.18566847"
         id="path5417"
         inkscape:connector-curvature="0" />
      <path
         d="m 7743.6007,-808.63583 h 94.9856 v 250.93703 l 95.6592,-131.36301 h 86.228 l -85.8912,114.18477 94.3119,226.01174 h -102.3958 l -53.2188,-157.97244 -34.6933,47.82961 v 110.14283 h -94.9856 z"
         style="font-style:normal;font-variant:normal;font-weight:normal;font-stretch:normal;font-size:689.82421875px;font-family:'Franklin Gothic Demi Cond';-inkscape-font-specification:'Franklin Gothic Demi Cond';letter-spacing:-5.31739473px;word-spacing:-8.47908974px;fill:#194056;fill-opacity:1;stroke-width:7.18566847"
         id="path5419"
         inkscape:connector-curvature="0" />
      <path
         d="m 8281.2506,-607.21255 -67.7025,20.20969 q -13.4731,-46.14546 -49.8506,-46.14546 -29.6409,0 -29.6409,29.64088 0,16.84141 11.1154,25.59895 11.1153,8.75753 45.8086,20.88335 39.0721,13.80995 57.2608,24.25163 18.1887,10.44168 30.6514,31.66185 12.4626,20.88335 12.4626,48.16644 0,47.15595 -34.0196,79.15464 -34.0197,31.99868 -94.9856,31.99868 -114.8584,0 -127.3211,-101.3853 l 75.4495,-12.12582 q 9.4312,50.86107 53.5557,50.86107 37.7248,0 37.7248,-31.66186 0,-16.84141 -11.1153,-25.59894 -11.1154,-8.75754 -43.114,-18.86238 -58.6082,-18.86239 -80.502,-45.47182 -21.8938,-26.60943 -21.8938,-61.63956 0,-49.17692 34.3564,-78.81781 34.6934,-29.64088 86.5649,-29.64088 90.6068,0 115.1953,88.92265 z"
         style="font-style:normal;font-variant:normal;font-weight:normal;font-stretch:normal;font-size:689.82421875px;font-family:'Franklin Gothic Demi Cond';-inkscape-font-specification:'Franklin Gothic Demi Cond';letter-spacing:-5.31739473px;word-spacing:-8.47908974px;fill:#194056;fill-opacity:1;stroke-width:7.18566847"
         id="path5421"
         inkscape:connector-curvature="0" />
      <path
         d="m 8457.1601,-808.63583 h 101.0484 v 373.54251 h 148.2045 v 86.22802 h -249.2529 z"
         style="font-style:normal;font-variant:normal;font-weight:normal;font-stretch:normal;font-size:689.82421875px;font-family:'Franklin Gothic Demi Cond';-inkscape-font-specification:'Franklin Gothic Demi Cond';letter-spacing:-5.31739473px;word-spacing:-8.47908974px;fill:#194056;fill-opacity:1;stroke-width:7.18566847"
         id="path5423"
         inkscape:connector-curvature="0" />
      <path
         d="m 8745.557,-808.63583 h 101.0485 v 373.54251 h 148.2044 v 86.22802 H 8745.557 Z"
         style="font-style:normal;font-variant:normal;font-weight:normal;font-stretch:normal;font-size:689.82421875px;font-family:'Franklin Gothic Demi Cond';-inkscape-font-specification:'Franklin Gothic Demi Cond';letter-spacing:-5.31739473px;word-spacing:-8.47908974px;fill:#194056;fill-opacity:1;stroke-width:7.18566847"
         id="path5425"
         inkscape:connector-curvature="0" />
      <path
         d="m 9257.6075,-516.26893 93.3014,5.72608 q -5.0524,74.77587 -47.4928,121.93182 -42.4403,46.81913 -112.1638,46.81913 -84.8807,0 -129.342,-62.98688 -44.4614,-62.98688 -44.4614,-173.46654 0,-111.49015 44.1245,-174.47703 44.1245,-62.98687 131.0262,-62.98687 143.8257,0 156.6252,177.8453 l -92.291,6.73657 q -3.7051,-102.39579 -63.9973,-102.39579 -31.6619,0 -50.5243,33.00917 -18.5255,33.00917 -18.5255,127.99473 0,84.88071 17.1782,116.8794 17.1782,31.66185 51.5347,31.66185 55.2399,0 65.0079,-92.29094 z"
         style="font-style:normal;font-variant:normal;font-weight:normal;font-stretch:normal;font-size:689.82421875px;font-family:'Franklin Gothic Demi Cond';-inkscape-font-specification:'Franklin Gothic Demi Cond';letter-spacing:-5.31739473px;word-spacing:-8.47908974px;fill:#194056;fill-opacity:1;stroke-width:7.18566847"
         id="path5427"
         inkscape:connector-curvature="0" />
    </g>
  </g>
</svg>
